<!DOCTYPE svg PUBLIC "-//W3C//DTD SVG 1.1//EN" "http://www.w3.org/Graphics/SVG/1.1/DTD/svg11.dtd">
<!-- Uploaded to: SVG Repo, www.svgrepo.com, Transformed by: SVG Repo Mixer Tools -->
<svg width="229px" height="229px" viewBox="-2.4 -2.4 28.80 28.80" fill="none" xmlns="http://www.w3.org/2000/svg" stroke="#B8AEDA" stroke-width="0.00024000000000000003">
<g id="SVGRepo_bgCarrier" stroke-width="0"/>
<g id="SVGRepo_tracerCarrier" stroke-linecap="round" stroke-linejoin="round" stroke="#A1FFF7" stroke-width="0.9120000000000001"> <path fill-rule="evenodd" clip-rule="evenodd" d="M4 6C3.44772 6 3 6.44772 3 7V17C3 17.5523 3.44772 18 4 18H14C14.5523 18 15 17.5523 15 17V15.9343C15 14.7362 16.3352 14.0216 17.3321 14.6862L21 17.1315V6.86852L17.3321 9.31382C16.3352 9.97837 15 9.26378 15 8.06574V7C15 6.44772 14.5523 6 14 6H4ZM1 7C1 5.34315 2.34315 4 4 4H14C15.6569 4 17 5.34315 17 7V7.13148L19.8906 5.20442C21.2197 4.31834 23 5.27112 23 6.86852V17.1315C23 18.7289 21.2197 19.6817 19.8906 18.7956L17 16.8685V17C17 18.6569 15.6569 20 14 20H4C2.34315 20 1 18.6569 1 17V7Z" fill="#B8AEDA"/> </g>
<g id="SVGRepo_iconCarrier"> <path fill-rule="evenodd" clip-rule="evenodd" d="M4 6C3.44772 6 3 6.44772 3 7V17C3 17.5523 3.44772 18 4 18H14C14.5523 18 15 17.5523 15 17V15.9343C15 14.7362 16.3352 14.0216 17.3321 14.6862L21 17.1315V6.86852L17.3321 9.31382C16.3352 9.97837 15 9.26378 15 8.06574V7C15 6.44772 14.5523 6 14 6H4ZM1 7C1 5.34315 2.34315 4 4 4H14C15.6569 4 17 5.34315 17 7V7.13148L19.8906 5.20442C21.2197 4.31834 23 5.27112 23 6.86852V17.1315C23 18.7289 21.2197 19.6817 19.8906 18.7956L17 16.8685V17C17 18.6569 15.6569 20 14 20H4C2.34315 20 1 18.6569 1 17V7Z" fill="#B8AEDA"/> </g>
</svg>